<svg width="16" height="17" viewBox="0 0 16 17" fill="none" xmlns="http://www.w3.org/2000/svg">
<path d="M2.4072 2.4072C2.45586 1.75283 2.75014 1.14105 3.23103 0.69459C3.71191 0.248131 4.34382 1.0528e-05 5 0H12.2C12.699 0 13.1932 0.0982899 13.6542 0.289258C14.1152 0.480226 14.5341 0.760132 14.887 1.11299C15.2399 1.46586 15.5198 1.88477 15.7107 2.3458C15.9017 2.80684 16 3.30098 16 3.8V8.6C16 9.25618 15.7519 9.88809 15.3054 10.369C14.859 10.8499 14.2472 11.1441 13.5928 11.1928C13.5441 11.8472 13.2499 12.4589 12.769 12.9054C12.2881 13.3519 11.6562 13.6 11 13.6H6.9336L4 15.8C3.3408 16.2944 2.4 15.824 2.4 15V13.592C1.74705 13.5416 1.13716 13.2467 0.692222 12.7662C0.247284 12.2856 7.46275e-05 11.6549 0 11V5C1.0528e-05 4.34382 0.248131 3.71191 0.69459 3.23103C1.14105 2.75014 1.75283 2.45586 2.4072 2.4072ZM3.6144 2.4H11C11.6896 2.4 12.3509 2.67393 12.8385 3.16152C13.3261 3.64912 13.6 4.31044 13.6 5V9.9856C13.9332 9.93751 14.2379 9.77097 14.4583 9.51649C14.6787 9.26201 14.8 8.93664 14.8 8.6V3.8C14.8 3.11044 14.5261 2.44912 14.0385 1.96152C13.5509 1.47393 12.8896 1.2 12.2 1.2H5C4.66336 1.20001 4.33799 1.32132 4.08351 1.54171C3.82903 1.7621 3.66249 2.06681 3.6144 2.4ZM2.6 12.4H3.6V14.6L6.5336 12.4H11C11.3713 12.4 11.7274 12.2525 11.9899 11.9899C12.2525 11.7274 12.4 11.3713 12.4 11V5C12.4 4.6287 12.2525 4.2726 11.9899 4.01005C11.7274 3.7475 11.3713 3.6 11 3.6H2.6C2.2287 3.6 1.8726 3.7475 1.61005 4.01005C1.3475 4.2726 1.2 4.6287 1.2 5V11C1.2 11.7728 1.8272 12.4 2.6 12.4Z" fill="#9DA1B4"/>
</svg>
