<svg width="20" height="15" viewBox="0 0 20 15" fill="none" xmlns="http://www.w3.org/2000/svg">
<path d="M19.9608 7.10687C19.1766 5.07858 17.8154 3.32451 16.0452 2.06145C14.275 0.798393 12.1735 0.0817176 10.0005 0C7.82744 0.0817176 5.72596 0.798393 3.95578 2.06145C2.18561 3.32451 0.824335 5.07858 0.0402058 7.10687C-0.0127509 7.25334 -0.0127509 7.41374 0.0402058 7.56021C0.824335 9.58851 2.18561 11.3426 3.95578 12.6056C5.72596 13.8687 7.82744 14.5854 10.0005 14.6671C12.1735 14.5854 14.275 13.8687 16.0452 12.6056C17.8154 11.3426 19.1766 9.58851 19.9608 7.56021C20.0137 7.41374 20.0137 7.25334 19.9608 7.10687ZM10.0005 13.3337C6.46705 13.3337 2.73362 10.7136 1.38024 7.33354C2.73362 3.95345 6.46705 1.33337 10.0005 1.33337C13.5339 1.33337 17.2674 3.95345 18.6207 7.33354C17.2674 10.7136 13.5339 13.3337 10.0005 13.3337Z" fill="#9DA1B4"/>
<path d="M10.0005 3.3335C9.2093 3.3335 8.43592 3.5681 7.77811 4.00764C7.12029 4.44718 6.60759 5.07191 6.30483 5.80283C6.00207 6.53376 5.92285 7.33805 6.0772 8.11399C6.23154 8.88994 6.61252 9.60269 7.17194 10.1621C7.73137 10.7215 8.44412 11.1025 9.22007 11.2569C9.99601 11.4112 10.8003 11.332 11.5312 11.0292C12.2622 10.7265 12.8869 10.2138 13.3264 9.55595C13.766 8.89814 14.0006 8.12476 14.0006 7.33361C14.0006 6.27271 13.5791 5.25527 12.829 4.5051C12.0788 3.75494 11.0613 3.3335 10.0005 3.3335ZM10.0005 10.0004C9.47302 10.0004 8.95743 9.84395 8.51889 9.55092C8.08034 9.2579 7.73854 8.84141 7.5367 8.35413C7.33486 7.86684 7.28205 7.33065 7.38495 6.81335C7.48785 6.29606 7.74183 5.82089 8.11478 5.44794C8.48773 5.07499 8.9629 4.821 9.4802 4.71811C9.99749 4.61521 10.5337 4.66802 11.021 4.86986C11.5083 5.0717 11.9247 5.4135 12.2178 5.85205C12.5108 6.29059 12.6672 6.80618 12.6672 7.33361C12.6672 8.04087 12.3862 8.71917 11.8861 9.21928C11.386 9.71939 10.7077 10.0004 10.0005 10.0004Z" fill="#9DA1B4"/>
</svg>
