<?xml version="1.0" encoding="utf-8"?>
<!-- Generator: Adobe Illustrator 16.0.0, SVG Export Plug-In . SVG Version: 6.00 Build 0)  -->
<!DOCTYPE svg PUBLIC "-//W3C//DTD SVG 1.1//EN" "http://www.w3.org/Graphics/SVG/1.1/DTD/svg11.dtd">
<svg version="1.1" id="Layer_1" xmlns="http://www.w3.org/2000/svg" xmlns:xlink="http://www.w3.org/1999/xlink" x="0px" y="0px"
	 width="128px" height="128px" viewBox="0 0 128 128" enable-background="new 0 0 128 128" xml:space="preserve">
<g>
	<g>
		<g>
			<g>
				<path fill="#282D33" d="M107.476,124.539L70.378,56.54l25.697-26.054l24.262,81.015L107.476,124.539z M75.34,57.237
					l33.074,60.623l7.387-7.488l-21.63-72.229L75.34,57.237z"/>
			</g>
			<g>
				<polygon fill="#282D33" points="61.772,52.135 4.296,19.897 17.121,6.888 84.908,27.753 83.724,31.597 18.271,11.448 
					10.859,18.968 63.74,48.628 				"/>
			</g>
		</g>
		<g>
			<path fill="#282D33" d="M45.866,128L30.285,99.442l-1.289-1.307L0.879,82.367l11.441-11.601l22.515,6.93l71.427-72.421
				c2.965-3.006,8.427-5.274,12.705-5.275c0.001,0,0.002,0,0.003,0c2.513,0,4.59,0.761,6.01,2.199
				c4.452,4.512,1.228,14.575-3.036,18.899L99.321,44.038l-2.863-2.823l22.623-22.94c3.254-3.299,5.411-10.845,3.037-13.251
				c-0.817-0.827-2.162-1.002-3.147-1.002c-0.001,0-0.001,0-0.002,0c-3.597,0.001-7.909,2.117-9.843,4.078l-73.14,74.158
				l-22.516-6.93l-6.027,6.11l24.016,13.47l2.084,2.113l13.26,24.301l5.995-6.08l-6.835-22.833l23.757-24.086l2.863,2.824
				L50.5,93.538l6.834,22.831L45.866,128z"/>
		</g>
		<g>
			
				<rect x="31.462" y="81.01" transform="matrix(0.7119 0.7023 -0.7023 0.7119 76.3229 3.8469)" fill="#282D33" width="4.021" height="27.869"/>
		</g>
		<g>
			<g>
				<g>
					
						<rect x="23.427" y="40.763" transform="matrix(0.7121 0.702 -0.702 0.7121 44.5188 -2.6065)" fill="#282D33" width="4.021" height="24.439"/>
				</g>
				<g>
					
						<rect x="15.495" y="36.278" transform="matrix(0.7119 0.7023 -0.7023 0.7119 34.8018 -0.0863)" fill="#282D33" width="4.021" height="12.188"/>
				</g>
			</g>
			<g>
				<g>
					
						<rect x="72.844" y="90.868" transform="matrix(0.7119 0.7022 -0.7022 0.7119 93.9528 -22.8705)" fill="#282D33" width="4.02" height="24.438"/>
				</g>
				<g>
					
						<rect x="83.31" y="105.039" transform="matrix(0.7119 0.7022 -0.7022 0.7119 102.617 -27.9029)" fill="#282D33" width="4.02" height="12.185"/>
				</g>
			</g>
		</g>
	</g>
</g>
</svg>
